<svg width="180" height="6" viewBox="0 0 180 6" fill="none" xmlns="http://www.w3.org/2000/svg">
<path d="M2.75 5.66667C4.22276 5.66667 5.41667 4.47276 5.41667 3C5.41667 1.52724 4.22276 0.333333 2.75 0.333333C1.27724 0.333333 0.0833333 1.52724 0.0833333 3C0.0833333 4.47276 1.27724 5.66667 2.75 5.66667ZM177.25 5.66667C178.723 5.66667 179.917 4.47276 179.917 3C179.917 1.52724 178.723 0.333333 177.25 0.333333C175.777 0.333333 174.583 1.52724 174.583 3C174.583 4.47276 175.777 5.66667 177.25 5.66667ZM2.75 3.5L177.25 3.5V2.5L2.75 2.5V3.5Z" fill="#F9F2E9"/>
</svg>
